Coordinates
version=1
nRows=14
nColumns=42
inDegrees=yes

Units are S.I. units (second, meters, Newtons, ...)
If the header above contains a line with 'inDegrees', this indicates whether rotational values are in degrees (yes) or radians (no).

endheader
time	pelvis_tilt	pelvis_list	pelvis_rotation	pelvis_tx	pelvis_ty	pelvis_tz	hip_flexion_r	hip_adduction_r	hip_rotation_r	knee_angle_r	knee_adduction_r	knee_angle_r_beta	ankle_angle_r	subtalar_angle_r	mtp_angle_r	hip_flexion_l	hip_adduction_l	hip_rotation_l	knee_angle_l	knee_adduction_l	knee_angle_l_beta	ankle_angle_l	subtalar_angle_l	mtp_angle_l	lumbar_extension	lumbar_bending	lumbar_rotation	arm_flex_r	arm_add_r	arm_rot_r	elbow_flex_r	pro_sup_r	wrist_flex_r	wrist_dev_r	arm_flex_l	arm_add_l	arm_rot_l	elbow_flex_l	pro_sup_l	wrist_flex_l	wrist_dev_l
      4.25000000	     12.22954098	      1.13476843	      3.31024127	      0.20276050	      0.88433479	     -0.13869464	     -8.58306004	      1.82460470	    -17.93287272	     24.20378540	      0.10857152	      0.42243575	     23.88975248	     28.48645144	     -7.50187301	     16.36612981	     -2.02430845	     -6.86558139	     31.21114926	     -2.46278890	      0.54473732	     11.11656877	     16.46853275	     -7.50187301	    -29.59169727	      5.40124438	     -3.52357435	      7.37869034	    -13.92721961	     -0.38642974	     50.02772365	     90.00000001	      0.00000000	      0.00000000	     14.33501908	     -9.22100026	     26.68066812	     50.83046995	     90.00000001	      0.00000000	      0.00000000
      4.26000000	     12.24602854	      1.09697116	      3.32513246	      0.20563332	      0.88390182	     -0.13887019	     -8.76634624	      1.86936255	    -17.84770323	     24.32938554	      0.11237280	      0.42462788	     23.86691764	     28.37910811	     -7.50186438	     16.67914955	     -1.99114914	     -6.97411153	     31.08112690	     -2.31734399	      0.54246800	     11.11240282	     16.43852571	     -7.50186438	    -29.54939001	      5.45740427	     -3.56751458	      7.28812685	    -14.01900070	     -0.38925751	     49.98940772	     90.00000001	      0.00000000	      0.00000000	     14.35276167	     -9.25143980	     26.62609317	     50.86020725	     90.00000001	      0.00000000	      0.00000000
      4.27000000	     12.39682497	      1.06482886	      3.29875745	      0.20876018	      0.88382399	     -0.13906455	     -9.22948250	      1.89865120	    -17.78429692	     24.20850367	      0.18108780	      0.42251810	     24.24869904	     28.41347800	     -7.50185869	     16.58917106	     -1.91208881	     -6.94276622	     30.48996132	     -2.16857852	      0.53215021	     11.15176430	     16.72051573	     -7.50185869	    -29.61096781	      5.51401931	     -3.64221333	      7.32773520	    -14.09694791	     -0.21219165	     49.59239461	     90.00000001	      0.00000000	      0.00000000	     14.32861629	     -9.23816582	     26.54426448	     50.72117713	     90.00000001	      0.00000000	      0.00000000
      4.28000000	     12.47299669	      1.02249134	      3.28380981	      0.21187392	      0.88352919	     -0.13930256	     -9.56905467	      1.90147551	    -17.78947042	     24.19994950	      0.26442000	      0.42236880	     24.36179119	     28.34849053	     -7.50184963	     16.69946519	     -1.87112895	     -7.04114521	     30.20314112	     -2.01747570	      0.52714426	     11.15636082	     16.78543247	     -7.50184963	    -29.59206376	      5.57275772	     -3.70274379	      7.30191600	    -14.18723971	     -0.11940556	     49.36988493	     90.00000001	      0.00000000	      0.00000000	     14.29536344	     -9.24750290	     26.46808813	     50.69530503	     90.00000001	      0.00000000	      0.00000000
      4.29000000	     12.60375455	      1.02187987	      3.28479911	      0.21494305	      0.88338206	     -0.13963117	     -9.97004955	      1.89357022	    -17.70301303	     24.17439760	      0.30811122	      0.42192283	     24.51426867	     28.31856485	     -7.50183491	     16.67743796	     -1.77066176	     -7.07017795	     29.85432307	     -1.83642123	      0.52105623	     11.13209323	     16.91225685	     -7.50183491	    -29.67347862	      5.61941366	     -3.80244888	      7.36091513	    -14.28270396	      0.07231188	     48.97217632	     90.00000001	      0.00000000	      0.00000000	     14.28332792	     -9.24636636	     26.34020116	     50.67332103	     90.00000001	      0.00000000	      0.00000000
      4.30000000	     12.63613680	      0.95627046	      3.28788226	      0.21808774	      0.88300513	     -0.13992403	    -10.26379111	      1.92392859	    -17.78416895	     24.15198346	      0.36482011	      0.42153163	     24.60499264	     28.31280405	     -7.50183061	     16.81461089	     -1.74291768	     -7.21268808	     29.65014312	     -1.72570483	      0.51749262	     11.15015147	     16.89830417	     -7.50183061	    -29.63990642	      5.71850986	     -3.84768275	      7.31860814	    -14.38533129	      0.10912909	     48.79809422	     90.00000001	      0.00000000	      0.00000000	     14.24854323	     -9.24000862	     26.32003690	     50.65260009	     90.00000001	      0.00000000	      0.00000000
      4.31000000	     12.65557139	      0.89712228	      3.28795477	      0.22112139	      0.88259955	     -0.14023507	    -10.50540392	      1.96911054	    -17.79824875	     24.18170192	      0.37848204	      0.42205032	     24.66924259	     28.30771645	     -7.50182673	     16.96142338	     -1.70199709	     -7.32618124	     29.49967490	     -1.60756215	      0.51486646	     11.15484985	     16.87934013	     -7.50182673	    -29.62960180	      5.80136663	     -3.89802144	      7.29913742	    -14.49550557	      0.12972090	     48.64357019	     90.00000001	      0.00000000	      0.00000000	     14.24521881	     -9.22389868	     26.30453703	     50.64832943	     90.00000001	      0.00000000	      0.00000000
      4.32000000	     12.68679684	      0.83343676	      3.28545399	      0.22418308	      0.88220531	     -0.14062647	    -10.76986210	      2.00635901	    -17.83803069	     24.18706283	      0.39462556	      0.42214388	     24.78280379	     28.34018906	     -7.50182461	     17.04967560	     -1.67222540	     -7.48008820	     29.31417991	     -1.48656846	      0.51162896	     11.16215480	     16.85508902	     -7.50182461	    -29.62011774	      5.90746271	     -3.93354424	      7.31040907	    -14.61885102	      0.16292595	     48.41876054	     90.00000001	      0.00000000	      0.00000000	     14.24241732	     -9.20826991	     26.29885360	     50.62761989	     90.00000001	      0.00000000	      0.00000000
      4.33000000	     12.74520756	      0.79821400	      3.07605048	      0.22723036	      0.88191267	     -0.14071461	    -11.00983125	      1.99507390	    -17.70766438	     24.27910116	      0.35539749	      0.42375025	     25.10631210	     28.44546247	     -7.50180230	     16.98512502	     -1.66256266	     -7.75475095	     29.01319094	     -1.34151981	      0.50637571	     11.04760776	     16.71727160	     -7.50180230	    -29.66692433	      5.88602296	     -3.89396833	      7.60138642	    -14.71151467	      0.47954625	     47.57651582	     90.00000001	      0.00000000	      0.00000000	     14.19938140	     -9.18590922	     26.19092081	     50.58918872	     90.00000001	      0.00000000	      0.00000000
      4.34000000	     12.68628330	      0.73903204	      3.04476504	      0.23020726	      0.88133988	     -0.14117373	    -11.13117886	      2.01560223	    -17.68231440	     24.36311262	      0.36174957	      0.42521653	     25.10084101	     28.40791276	     -7.50179709	     17.15317224	     -1.61321988	     -7.89673036	     28.94169612	     -1.22458444	      0.50512789	     11.04049150	     16.65680362	     -7.50179709	    -29.61219432	      5.98832064	     -3.92935027	      7.59620567	    -14.84850962	      0.46730783	     47.51881417	     90.00000001	      0.00000000	      0.00000000	     14.19663851	     -9.17061354	     26.17257488	     50.61666569	     90.00000001	      0.00000000	      0.00000000
      4.35000000	     12.62235571	      0.64611479	      2.97525528	      0.23324299	      0.88076745	     -0.14170170	    -11.25043295	      2.03190469	    -17.68167871	     24.45623750	      0.39100817	      0.42684187	     25.15992942	     28.39203961	     -7.50179138	     17.26975173	     -1.61496570	     -8.14608173	     28.81159868	     -1.12019933	      0.50285726	     11.03038725	     16.54079360	     -7.50179138	    -29.55124023	      6.13050773	     -3.92666104	      7.64088808	    -15.02773234	      0.47007312	     47.37174370	     90.00000001	      0.00000000	      0.00000000	     14.15394954	     -9.10588475	     26.17343513	     50.63480595	     90.00000001	      0.00000000	      0.00000000
      4.36000000	     12.60743823	      0.64840998	      2.50177527	      0.23631276	      0.88031549	     -0.14156071	    -11.29062731	      1.89190894	    -17.41167356	     24.76256403	      0.30286961	      0.43218827	     25.65195858	     28.63534641	     -7.50176063	     17.17684747	     -1.61556255	     -8.81201419	     28.56957591	     -1.09968739	      0.49863317	     10.81970335	     16.01766454	     -7.50176063	    -29.54851991	      5.96221671	     -3.67712854	      7.97753397	    -15.11465180	      0.84423200	     46.47198155	     90.00000001	      0.00000000	      0.00000000	     14.11948228	     -9.05735059	     26.07889567	     50.55943991	     90.00000001	      0.00000000	      0.00000000
      4.37000000	     12.52562199	      0.57440726	      2.42684824	      0.23934457	      0.87964635	     -0.14209079	    -11.38637645	      1.90250475	    -17.38775366	     24.84498237	      0.30016209	      0.43362675	     25.65482098	     28.61348067	     -7.50175665	     17.26994499	     -1.56718855	     -8.91932784	     28.51678213	     -1.02161202	      0.49771174	     10.80678044	     15.95919127	     -7.50175665	    -29.48506760	      6.07443976	     -3.69069483	      8.02262829	    -15.25772733	      0.82325849	     46.44083890	     90.00000001	      0.00000000	      0.00000000	     14.09792254	     -9.02319798	     26.07666191	     50.58038496	     90.00000001	      0.00000000	      0.00000000
      4.38000000	     12.46927755	      0.49740857	      1.95797150	      0.24243621	      0.87911122	     -0.14214840	    -11.35053002	      1.82925264	    -17.10764606	     25.21524717	      0.21217659	      0.44008908	     26.03650050	     28.80623512	     -7.50173231	     17.15600454	     -1.62832134	     -9.56495673	     28.25606550	     -1.00895141	      0.49316138	     10.60527918	     15.36993880	     -7.50173231	    -29.47317694	      6.03168646	     -3.37369613	      8.26934855	    -15.44348679	      1.04477469	     45.85545996	     90.00000001	      0.00000000	      0.00000000	     14.04848348	     -8.90986508	     26.02944019	     50.55237999	     90.00000001	      0.00000000	      0.00000000
